<svg width="78" height="48" viewBox="0 0 78 48" fill="none" xmlns="http://www.w3.org/2000/svg">
<g opacity="0.6" clip-path="url(#clip0_23_301)">
<path d="M10.5204 8.80036C10.5204 9.13369 10.5648 9.40036 10.6093 9.60036C10.676 9.80036 10.765 10.0004 10.8984 10.2448C10.9429 10.3115 10.9651 10.3781 10.9651 10.4448C10.9651 10.5337 10.9206 10.6226 10.7872 10.7115L10.2313 11.0892C10.1423 11.1337 10.0756 11.1781 10.0089 11.1781C9.91996 11.1781 9.83101 11.1337 9.74207 11.0448C9.60864 10.9115 9.5197 10.7781 9.43075 10.6226C9.3418 10.467 9.25285 10.3115 9.1639 10.0892C8.47456 10.9115 7.60732 11.3115 6.53994 11.3115C5.78388 11.3115 5.20572 11.0892 4.76098 10.667C4.31624 10.2448 4.09387 9.66703 4.09387 8.95592C4.09387 8.20036 4.36072 7.57814 4.8944 7.13369C5.42809 6.68925 6.16191 6.4448 7.07363 6.4448C7.38495 6.4448 7.69626 6.46703 8.00758 6.51147C8.34114 6.55592 8.67469 6.62258 9.03048 6.71147V6.06703C9.03048 5.40036 8.89706 4.91147 8.60798 4.64481C8.3189 4.37814 7.85192 4.24481 7.16258 4.24481C6.85126 4.24481 6.53994 4.28925 6.20639 4.35592C5.87283 4.44481 5.56151 4.53369 5.2502 4.66703C5.11677 4.71147 5.00559 4.75592 4.93888 4.77814C4.87217 4.77814 4.82769 4.80036 4.80546 4.80036C4.67203 4.80036 4.62756 4.71147 4.62756 4.53369V4.08925C4.62756 3.95592 4.6498 3.84481 4.69427 3.77814C4.73874 3.71147 4.82769 3.64481 4.93888 3.60036C5.2502 3.44481 5.62822 3.31147 6.05073 3.20036C6.49547 3.08925 6.94021 3.02258 7.42942 3.02258C8.49679 3.02258 9.25285 3.26703 9.7643 3.73369C10.2535 4.22258 10.4981 4.93369 10.4981 5.93369L10.5204 8.80036ZM6.91797 10.1559C7.20705 10.1559 7.51837 10.1115 7.82968 10.0004C8.141 9.88925 8.43008 9.68925 8.67469 9.42258C8.80811 9.2448 8.9193 9.06703 8.98601 8.8448C9.03048 8.62258 9.07496 8.37814 9.07496 8.06703V7.68925C8.80811 7.62258 8.54127 7.57814 8.25219 7.53369C7.96311 7.48925 7.69626 7.48925 7.40718 7.48925C6.80678 7.48925 6.38428 7.60036 6.07296 7.8448C5.78388 8.08925 5.62822 8.42258 5.62822 8.86703C5.62822 9.28925 5.73941 9.60036 5.96178 9.80036C6.18415 10.067 6.49547 10.1559 6.91797 10.1559ZM14.056 11.1337C13.9004 11.1337 13.7892 11.1115 13.7225 11.0448C13.6558 11.0004 13.5891 10.867 13.5446 10.6892L11.4543 3.80036C11.4098 3.62258 11.3654 3.51147 11.3654 3.44481C11.3654 3.31147 11.4321 3.22258 11.5877 3.22258H12.455C12.6329 3.22258 12.7441 3.24481 12.8108 3.31147C12.8775 3.35592 12.9442 3.48925 12.9887 3.66703L14.4785 9.55592L15.8572 3.66703C15.9017 3.48925 15.9462 3.37814 16.0351 3.31147C16.1018 3.26703 16.2353 3.22258 16.3909 3.22258H17.1025C17.2804 3.22258 17.3916 3.24481 17.4583 3.31147C17.525 3.35592 17.5917 3.48925 17.6362 3.66703L19.0371 9.62258L20.5715 3.66703C20.6159 3.48925 20.6827 3.37814 20.7494 3.31147C20.8161 3.26703 20.9273 3.22258 21.1052 3.22258H21.9279C22.0614 3.22258 22.1503 3.28925 22.1503 3.44481C22.1503 3.48925 22.1503 3.53369 22.1281 3.57814C22.1281 3.62258 22.1058 3.71147 22.0614 3.80036L19.9044 10.6892C19.8599 10.867 19.7932 10.9781 19.7265 11.0448C19.6598 11.0892 19.5486 11.1337 19.3929 11.1337H18.6369C18.459 11.1337 18.3478 11.1115 18.2811 11.0448C18.2144 10.9781 18.1476 10.867 18.1032 10.6892L16.7245 4.95592L15.3458 10.6892C15.3013 10.867 15.2568 10.9781 15.1679 11.0448C15.1012 11.1115 14.9678 11.1337 14.8121 11.1337H14.056ZM25.5081 11.3559C25.0411 11.3559 24.5741 11.3115 24.1294 11.2004C23.6847 11.0892 23.3289 10.9781 23.1065 10.8448C22.9731 10.7559 22.8619 10.667 22.8396 10.6004C22.8174 10.5337 22.7729 10.4226 22.7729 10.3559V9.91147C22.7729 9.73369 22.8396 9.6448 22.9731 9.6448C23.0175 9.6448 23.0843 9.6448 23.1287 9.66703C23.1732 9.68925 23.2622 9.71147 23.3511 9.75592C23.6624 9.88925 23.9737 10.0004 24.3295 10.067C24.6853 10.1337 25.0411 10.1781 25.3969 10.1781C25.9528 10.1781 26.3976 10.0892 26.6866 9.88925C26.998 9.68925 27.1536 9.40036 27.1536 9.0448C27.1536 8.80036 27.0647 8.60036 26.909 8.42258C26.7534 8.2448 26.442 8.11147 26.0195 7.95592L24.7298 7.55592C24.0849 7.35592 23.5957 7.0448 23.3066 6.6448C23.0175 6.2448 22.8619 5.82258 22.8619 5.35592C22.8619 4.97814 22.9508 4.64481 23.1065 4.37814C23.2622 4.11147 23.4845 3.84481 23.7514 3.64481C24.0182 3.44481 24.3295 3.28925 24.6853 3.17814C25.0411 3.06703 25.4191 3.02258 25.7972 3.02258C25.9973 3.02258 26.1974 3.02258 26.3976 3.06703C26.5977 3.08925 26.7978 3.13369 26.9757 3.15592C27.1536 3.20036 27.3315 3.24481 27.4872 3.28925C27.6428 3.33369 27.7763 3.40036 27.8652 3.44481C27.9986 3.51147 28.0876 3.57814 28.132 3.66703C28.1765 3.73369 28.221 3.84481 28.221 3.95592V4.37814C28.221 4.55592 28.1543 4.66703 28.0209 4.66703C27.9542 4.66703 27.843 4.62258 27.6873 4.55592C27.1759 4.33369 26.6199 4.20036 25.9751 4.20036C25.4636 4.20036 25.0633 4.28925 24.7965 4.44481C24.5297 4.60036 24.374 4.86703 24.374 5.2448C24.374 5.48925 24.4629 5.71147 24.6408 5.86703C24.8187 6.0448 25.1523 6.20036 25.6193 6.35592L26.8868 6.75592C27.5317 6.95592 27.9986 7.2448 28.2655 7.60036C28.5323 7.95592 28.6657 8.37814 28.6657 8.8448C28.6657 9.22258 28.5768 9.57814 28.4434 9.86703C28.2877 10.1781 28.0653 10.4448 27.7985 10.6448C27.5317 10.867 27.1981 11.0226 26.8201 11.1337C26.3753 11.3115 25.9528 11.3559 25.5081 11.3559Z" fill="white"/>
<path fill-rule="evenodd" clip-rule="evenodd" d="M27.1951 15.6891C24.2598 17.8446 19.9903 19.0002 16.3434 19.0002C11.2067 19.0002 6.58137 17.1113 3.09017 13.9557C2.82332 13.7113 3.06793 13.378 3.40149 13.5557C7.18177 15.7557 11.8293 17.0668 16.6547 17.0668C19.9013 17.0668 23.4815 16.4002 26.7726 15.0002C27.2395 14.8002 27.662 15.3335 27.1951 15.6891Z" fill="white"/>
<path fill-rule="evenodd" clip-rule="evenodd" d="M28.3951 14.3113C28.0171 13.8224 25.9268 14.0891 24.9706 14.2002C24.6815 14.2446 24.637 13.9779 24.9039 13.8002C26.5717 12.6224 29.329 12.9557 29.6404 13.3557C29.9517 13.7557 29.5514 16.5113 27.9948 17.8224C27.7502 18.0224 27.5278 17.9113 27.639 17.6446C27.9948 16.7557 28.7731 14.7779 28.3951 14.3113Z" fill="white"/>
<path d="M10.5204 8.80036C10.5204 9.13369 10.5648 9.40036 10.6093 9.60036C10.676 9.80036 10.765 10.0004 10.8984 10.2448C10.9429 10.3115 10.9651 10.3781 10.9651 10.4448C10.9651 10.5337 10.9206 10.6226 10.7872 10.7115L10.2313 11.0892C10.1423 11.1337 10.0756 11.1781 10.0089 11.1781C9.91996 11.1781 9.83101 11.1337 9.74207 11.0448C9.60864 10.9115 9.5197 10.7781 9.43075 10.6226C9.3418 10.467 9.25285 10.3115 9.1639 10.0892C8.47456 10.9115 7.60732 11.3115 6.53994 11.3115C5.78388 11.3115 5.20572 11.0892 4.76098 10.667C4.31624 10.2448 4.09387 9.66703 4.09387 8.95592C4.09387 8.20036 4.36072 7.57814 4.8944 7.13369C5.42809 6.68925 6.16191 6.4448 7.07363 6.4448C7.38495 6.4448 7.69626 6.46703 8.00758 6.51147C8.34114 6.55592 8.67469 6.62258 9.03048 6.71147V6.06703C9.03048 5.40036 8.89706 4.91147 8.60798 4.64481C8.3189 4.37814 7.85192 4.24481 7.16258 4.24481C6.85126 4.24481 6.53994 4.28925 6.20639 4.35592C5.87283 4.44481 5.56151 4.53369 5.2502 4.66703C5.11677 4.71147 5.00559 4.75592 4.93888 4.77814C4.87217 4.77814 4.82769 4.80036 4.80546 4.80036C4.67203 4.80036 4.62756 4.71147 4.62756 4.53369V4.08925C4.62756 3.95592 4.6498 3.84481 4.69427 3.77814C4.73874 3.71147 4.82769 3.64481 4.93888 3.60036C5.2502 3.44481 5.62822 3.31147 6.05073 3.20036C6.49547 3.08925 6.94021 3.02258 7.42942 3.02258C8.49679 3.02258 9.25285 3.26703 9.7643 3.73369C10.2535 4.22258 10.4981 4.93369 10.4981 5.93369L10.5204 8.80036ZM6.91797 10.1559C7.20705 10.1559 7.51837 10.1115 7.82968 10.0004C8.141 9.88925 8.43008 9.68925 8.67469 9.42258C8.80811 9.2448 8.9193 9.06703 8.98601 8.8448C9.03048 8.62258 9.07496 8.37814 9.07496 8.06703V7.68925C8.80811 7.62258 8.54127 7.57814 8.25219 7.53369C7.96311 7.48925 7.69626 7.48925 7.40718 7.48925C6.80678 7.48925 6.38428 7.60036 6.07296 7.8448C5.78388 8.08925 5.62822 8.42258 5.62822 8.86703C5.62822 9.28925 5.73941 9.60036 5.96178 9.80036C6.18415 10.067 6.49547 10.1559 6.91797 10.1559ZM14.056 11.1337C13.9004 11.1337 13.7892 11.1115 13.7225 11.0448C13.6558 11.0004 13.5891 10.867 13.5446 10.6892L11.4543 3.80036C11.4098 3.62258 11.3654 3.51147 11.3654 3.44481C11.3654 3.31147 11.4321 3.22258 11.5877 3.22258H12.455C12.6329 3.22258 12.7441 3.24481 12.8108 3.31147C12.8775 3.35592 12.9442 3.48925 12.9887 3.66703L14.4785 9.55592L15.8572 3.66703C15.9017 3.48925 15.9462 3.37814 16.0351 3.31147C16.1018 3.26703 16.2353 3.22258 16.3909 3.22258H17.1025C17.2804 3.22258 17.3916 3.24481 17.4583 3.31147C17.525 3.35592 17.5917 3.48925 17.6362 3.66703L19.0371 9.62258L20.5715 3.66703C20.6159 3.48925 20.6827 3.37814 20.7494 3.31147C20.8161 3.26703 20.9273 3.22258 21.1052 3.22258H21.9279C22.0614 3.22258 22.1503 3.28925 22.1503 3.44481C22.1503 3.48925 22.1503 3.53369 22.1281 3.57814C22.1281 3.62258 22.1058 3.71147 22.0614 3.80036L19.9044 10.6892C19.8599 10.867 19.7932 10.9781 19.7265 11.0448C19.6598 11.0892 19.5486 11.1337 19.3929 11.1337H18.6369C18.459 11.1337 18.3478 11.1115 18.2811 11.0448C18.2144 10.9781 18.1476 10.867 18.1032 10.6892L16.7245 4.95592L15.3458 10.6892C15.3013 10.867 15.2568 10.9781 15.1679 11.0448C15.1012 11.1115 14.9678 11.1337 14.8121 11.1337H14.056ZM25.5081 11.3559C25.0411 11.3559 24.5741 11.3115 24.1294 11.2004C23.6847 11.0892 23.3289 10.9781 23.1065 10.8448C22.9731 10.7559 22.8619 10.667 22.8396 10.6004C22.8174 10.5337 22.7729 10.4226 22.7729 10.3559V9.91147C22.7729 9.73369 22.8396 9.6448 22.9731 9.6448C23.0175 9.6448 23.0843 9.6448 23.1287 9.66703C23.1732 9.68925 23.2622 9.71147 23.3511 9.75592C23.6624 9.88925 23.9737 10.0004 24.3295 10.067C24.6853 10.1337 25.0411 10.1781 25.3969 10.1781C25.9528 10.1781 26.3976 10.0892 26.6866 9.88925C26.998 9.68925 27.1536 9.40036 27.1536 9.0448C27.1536 8.80036 27.0647 8.60036 26.909 8.42258C26.7534 8.2448 26.442 8.11147 26.0195 7.95592L24.7298 7.55592C24.0849 7.35592 23.5957 7.0448 23.3066 6.6448C23.0175 6.2448 22.8619 5.82258 22.8619 5.35592C22.8619 4.97814 22.9508 4.64481 23.1065 4.37814C23.2622 4.11147 23.4845 3.84481 23.7514 3.64481C24.0182 3.44481 24.3295 3.28925 24.6853 3.17814C25.0411 3.06703 25.4191 3.02258 25.7972 3.02258C25.9973 3.02258 26.1974 3.02258 26.3976 3.06703C26.5977 3.08925 26.7978 3.13369 26.9757 3.15592C27.1536 3.20036 27.3315 3.24481 27.4872 3.28925C27.6428 3.33369 27.7763 3.40036 27.8652 3.44481C27.9986 3.51147 28.0876 3.57814 28.132 3.66703C28.1765 3.73369 28.221 3.84481 28.221 3.95592V4.37814C28.221 4.55592 28.1543 4.66703 28.0209 4.66703C27.9542 4.66703 27.843 4.62258 27.6873 4.55592C27.1759 4.33369 26.6199 4.20036 25.9751 4.20036C25.4636 4.20036 25.0633 4.28925 24.7965 4.44481C24.5297 4.60036 24.374 4.86703 24.374 5.2448C24.374 5.48925 24.4629 5.71147 24.6408 5.86703C24.8187 6.0448 25.1523 6.20036 25.6193 6.35592L26.8868 6.75592C27.5317 6.95592 27.9986 7.2448 28.2655 7.60036C28.5323 7.95592 28.6657 8.37814 28.6657 8.8448C28.6657 9.22258 28.5768 9.57814 28.4434 9.86703C28.2877 10.1781 28.0653 10.4448 27.7985 10.6448C27.5317 10.867 27.1981 11.0226 26.8201 11.1337C26.3753 11.3115 25.9528 11.3559 25.5081 11.3559Z" fill="white"/>
<path fill-rule="evenodd" clip-rule="evenodd" d="M27.1951 15.6891C24.2598 17.8446 19.9903 19.0002 16.3434 19.0002C11.2067 19.0002 6.58137 17.1113 3.09017 13.9557C2.82332 13.7113 3.06793 13.378 3.40149 13.5557C7.18177 15.7557 11.8293 17.0668 16.6547 17.0668C19.9013 17.0668 23.4815 16.4002 26.7726 15.0002C27.2395 14.8002 27.662 15.3335 27.1951 15.6891Z" fill="white"/>
<path fill-rule="evenodd" clip-rule="evenodd" d="M28.3951 14.3113C28.0171 13.8224 25.9268 14.0891 24.9706 14.2002C24.6815 14.2446 24.637 13.9779 24.9039 13.8002C26.5717 12.6224 29.329 12.9557 29.6404 13.3557C29.9517 13.7557 29.5514 16.5113 27.9948 17.8224C27.7502 18.0224 27.5278 17.9113 27.639 17.6446C27.9948 16.7557 28.7731 14.7779 28.3951 14.3113Z" fill="white"/>
</g>
<path d="M10.1473 36.6797L9.51728 34.7897H6.90728L6.29728 36.6797H5.14728L7.52728 29.6997H8.94728L11.3273 36.6797H10.1473ZM8.23728 30.7397H8.18728L7.17728 33.8197H9.23728L8.23728 30.7397ZM13.9017 36.6797L12.2517 29.6997H13.4017L14.1117 33.0597L14.6017 35.3797H14.6317L15.1917 33.0597L16.0217 29.6997H17.2817L18.1017 33.0597L18.6517 35.3697H18.6817L19.1917 33.0597L19.9217 29.6997H21.0317L19.3117 36.6797H18.0417L17.1517 33.0697L16.6317 30.9497H16.6117L16.0817 33.0697L15.1717 36.6797H13.9017ZM24.8195 36.7997C24.2328 36.7997 23.7328 36.693 23.3195 36.4797C22.9128 36.2663 22.5628 35.9797 22.2695 35.6197L23.0495 34.8897C23.2961 35.1897 23.5661 35.4163 23.8595 35.5697C24.1595 35.723 24.4995 35.7997 24.8795 35.7997C25.3261 35.7997 25.6628 35.6997 25.8895 35.4997C26.1161 35.2997 26.2295 35.0297 26.2295 34.6897C26.2295 34.4163 26.1495 34.1997 25.9895 34.0397C25.8295 33.8797 25.5461 33.7597 25.1395 33.6797L24.5195 33.5697C23.8395 33.443 23.3295 33.2197 22.9895 32.8997C22.6495 32.5797 22.4795 32.1397 22.4795 31.5797C22.4795 31.273 22.5361 30.9963 22.6495 30.7497C22.7695 30.4963 22.9328 30.2863 23.1395 30.1197C23.3528 29.9463 23.6095 29.813 23.9095 29.7197C24.2095 29.6263 24.5461 29.5797 24.9195 29.5797C25.4461 29.5797 25.9028 29.673 26.2895 29.8597C26.6761 30.0397 27.0061 30.303 27.2795 30.6497L26.4895 31.3497C26.3095 31.1163 26.0895 30.9297 25.8295 30.7897C25.5695 30.6497 25.2461 30.5797 24.8595 30.5797C24.4595 30.5797 24.1495 30.6597 23.9295 30.8197C23.7095 30.9797 23.5995 31.213 23.5995 31.5197C23.5995 31.813 23.6895 32.033 23.8695 32.1797C24.0495 32.3197 24.3295 32.4263 24.7095 32.4997L25.3295 32.6297C26.0295 32.763 26.5395 32.9897 26.8595 33.3097C27.1861 33.6297 27.3495 34.0697 27.3495 34.6297C27.3495 34.9563 27.2928 35.253 27.1795 35.5197C27.0661 35.7863 26.8995 36.0163 26.6795 36.2097C26.4661 36.3963 26.2028 36.543 25.8895 36.6497C25.5761 36.7497 25.2195 36.7997 24.8195 36.7997Z" fill="white"/>
<path d="M74.2982 10.8603V25.7658L63.2446 36.8194H34.7733" stroke="white" stroke-width="0.267965"/>
<defs>
<clipPath id="clip0_23_301">
<rect width="26.7733" height="16" fill="white" transform="translate(3 3)"/>
</clipPath>
</defs>
</svg>
