<svg width="54" height="86" viewBox="0 0 54 86" fill="none" xmlns="http://www.w3.org/2000/svg">
<g opacity="0.8" clip-path="url(#clip0_23_302)">
<path fill-rule="evenodd" clip-rule="evenodd" d="M26.7736 11.7866C26.8589 11.661 26.8646 11.4961 26.7883 11.3647L22.042 3.18748C21.9733 3.06913 21.8487 2.99658 21.7142 2.99658H18.3818C18.0872 2.99658 17.904 3.3239 18.0529 3.58401L24.2887 14.4764C24.4294 14.7223 24.7718 14.7358 24.9307 14.5018L26.7736 11.7866ZM35.3781 15.0033C35.6725 15.0033 35.8558 14.6763 35.7073 14.4163L29.2989 3.18993C29.2305 3.07019 29.1052 2.99658 28.9697 2.99658H25.6391C25.3446 2.99658 25.1613 3.3239 25.3102 3.58401L31.7372 14.8103C31.8056 14.9298 31.9308 15.0033 32.0661 15.0033H35.3781ZM21.01 14.3078C21.1607 14.5679 20.9776 14.8971 20.6821 14.8971H18.3971C18.1865 14.8971 18.0158 14.7224 18.0158 14.5069V10.5644C18.0158 10.1677 18.5272 10.0241 18.7249 10.3654L21.01 14.3078ZM43.975 15.0033H42.0134V2.99658H43.9407L49.3782 12.4647L54.7988 2.99658H56.7261V15.0033H54.7645V7.06169L50.2045 15.0033H48.5353L43.975 7.06169V15.0033ZM68.8731 15.0033H61.2846V2.99658H68.8731V4.95195H63.2462V8.02222H68.8731V9.97761H63.2462V13.0479H68.8731V15.0033ZM76.382 15.0033H78.3436V4.95195H82.8866V2.99658H71.8217V4.95195H76.382V15.0033ZM96.7621 15.0033H94.6111L93.6303 12.9107H86.7815L85.818 15.0033H83.6671L89.2594 2.99658H91.1695L96.7621 15.0033ZM90.2059 5.55228L87.6935 10.9553H92.7183L90.2059 5.55228ZM100.159 15.0033H102.121V11.2297H104.65C107.06 11.2297 108.798 9.49734 108.798 7.11314C108.798 4.74612 107.06 2.99658 104.65 2.99658H100.159V15.0033ZM102.121 9.27434V4.95195H104.65C105.924 4.95195 106.836 5.86102 106.836 7.11314C106.836 8.36529 105.924 9.27434 104.65 9.27434H102.121ZM120.199 15.0033H112.507V2.99658H114.468V13.0479H120.199V15.0033ZM123.645 15.0033H131.233V13.0479H125.606V9.97761H131.233V8.02222H125.606V4.95195H131.233V2.99658H123.645V15.0033ZM136.832 15.0033H134.302L139.172 8.99992L134.302 2.99658H136.832L140.445 7.43905L144.059 2.99658H146.572L141.702 8.99992L146.572 15.0033H144.042L140.445 10.5608L136.832 15.0033Z" fill="#999999"/>
</g>
<path d="M6.33926 27.3396H6.28926L5.73926 28.4696L4.20926 31.2596L2.67926 28.4696L2.12926 27.3396H2.07926V32.6796H0.999257V25.6996H2.33926L4.20926 29.2496H4.26926L6.13926 25.6996H7.41926V32.6796H6.33926V27.3396ZM9.74379 32.6796V25.6996H14.2138V26.6996H10.8738V28.6396H13.9038V29.6396H10.8738V31.6796H14.2138V32.6796H9.74379ZM18.8615 26.6996V32.6796H17.7315V26.6996H15.6515V25.6996H20.9415V26.6996H18.8615ZM26.3487 32.6796L25.7187 30.7896H23.1087L22.4987 32.6796H21.3487L23.7287 25.6996H25.1487L27.5287 32.6796H26.3487ZM24.4387 26.7396H24.3887L23.3787 29.8196H25.4387L24.4387 26.7396ZM29.2098 32.6796V25.6996H32.2098C32.8565 25.6996 33.3565 25.8896 33.7098 26.2696C34.0631 26.6496 34.2398 27.1596 34.2398 27.7996C34.2398 28.4396 34.0631 28.9496 33.7098 29.3296C33.3565 29.7096 32.8565 29.8996 32.2098 29.8996H30.3398V32.6796H29.2098ZM30.3398 28.9096H32.1398C32.4265 28.9096 32.6498 28.8363 32.8098 28.6896C32.9698 28.5363 33.0498 28.3196 33.0498 28.0396V27.5596C33.0498 27.2796 32.9698 27.0663 32.8098 26.9196C32.6498 26.7663 32.4265 26.6896 32.1398 26.6896H30.3398V28.9096ZM36.0793 32.6796V25.6996H37.2093V31.6796H40.0493V32.6796H36.0793ZM41.8063 32.6796V25.6996H46.2763V26.6996H42.9363V28.6396H45.9663V29.6396H42.9363V31.6796H46.2763V32.6796H41.8063ZM53.654 32.6796H52.324L50.634 29.8996H50.604L48.934 32.6796H47.684L49.944 29.1096L47.764 25.6996H49.094L50.684 28.2996H50.704L52.314 25.6996H53.564L51.364 29.0996L53.654 32.6796Z" fill="white"/>
<path d="M3 44.6797V74.4908L11.1718 82.8647H42.5249" stroke="white" stroke-width="0.267965"/>
<defs>
<clipPath id="clip0_23_302">
<rect width="18" height="12" fill="white" transform="translate(18 3)"/>
</clipPath>
</defs>
</svg>
