<svg width="70" height="75" viewBox="0 0 70 75" fill="none" xmlns="http://www.w3.org/2000/svg">
<g clip-path="url(#clip0_23_309)">
<path d="M35.7422 19.6064H44.3207V21.1898H40.9177V29.5197H39.2161V21.1898H35.7422V19.6064Z" fill="#999999"/>
<path d="M21.6331 19.6064V21.1898H14.7569V23.7369H20.2868V25.3203H14.7569V27.9363H21.6331V29.5197H13.0554V21.1898H13.0547V19.6064H21.6331Z" fill="#999999"/>
<path d="M25.9143 19.6107H23.6875L31.6632 29.5239H33.8965L29.9081 24.5707L33.8901 19.6183L31.6632 19.6217L28.7932 23.1861L25.9143 19.6107Z" fill="#999999"/>
<path d="M28.2056 26.6918L27.0905 25.3053L23.6875 29.5315H25.9206L28.2056 26.6918Z" fill="#999999"/>
<path fill-rule="evenodd" clip-rule="evenodd" d="M13.1134 29.5196L5.12689 19.6023H3V29.5155H4.70151V21.7212L10.9758 29.5196H13.1134Z" fill="#999999"/>
<path d="M44.7178 29.4615C44.5928 29.4615 44.4865 29.4182 44.3975 29.3316C44.3085 29.245 44.2645 29.1402 44.2656 29.0161C44.2645 28.8953 44.3085 28.7916 44.3975 28.705C44.4865 28.6185 44.5928 28.5752 44.7178 28.5752C44.838 28.5752 44.9432 28.6185 45.0322 28.705C45.1224 28.7916 45.1674 28.8953 45.1687 29.0161C45.1674 29.0981 45.1466 29.1733 45.105 29.2405C45.0622 29.3088 45.008 29.3624 44.9396 29.4011C44.8726 29.441 44.7986 29.4615 44.7178 29.4615Z" fill="#999999"/>
<path d="M47.6253 25.2827H48.3793V28.1876C48.3782 28.4546 48.3205 28.6829 48.2076 28.8749C48.0935 29.0669 47.9355 29.2134 47.7326 29.3168C47.5308 29.4191 47.2945 29.4713 47.0258 29.4713C46.7802 29.4713 46.5601 29.427 46.3641 29.3407C46.1681 29.2544 46.0125 29.1248 45.8983 28.9544C45.783 28.784 45.7265 28.5716 45.7265 28.3171H46.4817C46.4828 28.4284 46.5082 28.525 46.5566 28.6057C46.605 28.6863 46.6718 28.7477 46.7572 28.7908C46.8436 28.834 46.9428 28.8556 47.0546 28.8556C47.1757 28.8556 47.2795 28.8306 47.3636 28.7795C47.4477 28.7295 47.5123 28.6545 47.5573 28.5545C47.6011 28.4557 47.6242 28.333 47.6253 28.1876V25.2827Z" fill="#999999"/>
<path d="M51.4682 26.4191C51.4498 26.243 51.3691 26.1056 51.2284 26.0079C51.0866 25.909 50.9033 25.8602 50.6784 25.8602C50.5206 25.8602 50.3846 25.884 50.2716 25.9306C50.1586 25.9783 50.0709 26.0419 50.0109 26.1226C49.9511 26.2033 49.9211 26.2953 49.9187 26.3987C49.9187 26.485 49.9394 26.56 49.9798 26.6225C50.0202 26.6861 50.0743 26.7395 50.1447 26.7827C50.2138 26.827 50.2911 26.8633 50.3753 26.8928C50.4606 26.9224 50.5459 26.9474 50.6312 26.9678L51.0243 27.0644C51.1823 27.1007 51.3357 27.1496 51.4821 27.2121C51.6284 27.2734 51.7611 27.3518 51.8774 27.4461C51.9939 27.5404 52.0862 27.654 52.1542 27.7869C52.2222 27.9198 52.2568 28.0755 52.2568 28.255C52.2568 28.497 52.1946 28.7094 52.0688 28.8934C51.9432 29.0763 51.7622 29.2195 51.5247 29.3229C51.2883 29.4251 51.0024 29.4774 50.6658 29.4774C50.3407 29.4774 50.0571 29.4274 49.8184 29.3274C49.5787 29.2286 49.3918 29.0832 49.2569 28.8923C49.1221 28.7015 49.0494 28.4686 49.0391 28.1948H49.7862C49.7966 28.3379 49.8427 28.4572 49.9211 28.5538C50.0006 28.6492 50.1043 28.7196 50.2312 28.7673C50.3592 28.8139 50.5021 28.8378 50.6601 28.8378C50.8249 28.8378 50.9702 28.8128 51.0958 28.7639C51.2203 28.7151 51.3183 28.6469 51.3887 28.5583C51.4602 28.4708 51.4959 28.3675 51.4971 28.2493C51.4959 28.1414 51.4636 28.0516 51.4013 27.9812C51.3379 27.9108 51.2503 27.8517 51.1384 27.804C51.0256 27.7563 50.8941 27.7131 50.7442 27.6756L50.2669 27.5552C49.9222 27.4677 49.6489 27.3348 49.4494 27.1564C49.2489 26.9781 49.1497 26.7418 49.1497 26.4452C49.1497 26.2021 49.2166 25.9886 49.3516 25.8056C49.4852 25.6227 49.6686 25.4807 49.9003 25.3796C50.1332 25.2774 50.3961 25.2274 50.6888 25.2274C50.9863 25.2274 51.2468 25.2774 51.4717 25.3796C51.6964 25.4807 51.8729 25.6216 52.0008 25.8011C52.1288 25.9806 52.1957 26.1862 52.1992 26.4191H51.4682Z" fill="#999999"/>
</g>
<path d="M9.23883 43.4219L8.46883 41.9419H8.43883V47.2819H7.35883V40.3019H8.61883L10.8988 44.1619L11.6688 45.6419H11.6988V40.3019H12.7788V47.2819H11.5188L9.23883 43.4219ZM15.0975 47.2819V40.3019H19.5675V41.3019H16.2275V43.2419H19.2575V44.2419H16.2275V46.2819H19.5675V47.2819H15.0975ZM26.9452 47.2819H25.6152L23.9252 44.5019H23.8952L22.2252 47.2819H20.9752L23.2352 43.7119L21.0552 40.3019H22.3852L23.9752 42.9019H23.9952L25.6052 40.3019H26.8552L24.6552 43.7019L26.9452 47.2819ZM31.202 41.3019V47.2819H30.072V41.3019H27.992V40.3019H33.282V41.3019H31.202ZM34.8117 47.4019C34.5651 47.4019 34.3817 47.3386 34.2617 47.2119C34.1417 47.0786 34.0817 46.9153 34.0817 46.7219V46.5719C34.0817 46.3786 34.1417 46.2186 34.2617 46.0919C34.3817 45.9586 34.5651 45.8919 34.8117 45.8919C35.0584 45.8919 35.2417 45.9586 35.3617 46.0919C35.4817 46.2186 35.5417 46.3786 35.5417 46.5719V46.7219C35.5417 46.9153 35.4817 47.0786 35.3617 47.2119C35.2417 47.3386 35.0584 47.4019 34.8117 47.4019ZM41.3521 40.3019V45.3819C41.3521 45.6886 41.3021 45.9653 41.2021 46.2119C41.1021 46.4586 40.9588 46.6719 40.7721 46.8519C40.5921 47.0253 40.3688 47.1619 40.1021 47.2619C39.8421 47.3553 39.5521 47.4019 39.2321 47.4019C38.6254 47.4019 38.1454 47.2419 37.7921 46.9219C37.4454 46.5953 37.2254 46.1719 37.1321 45.6519L38.1721 45.4219C38.2321 45.7219 38.3454 45.9586 38.5121 46.1319C38.6854 46.3053 38.9254 46.3919 39.2321 46.3919C39.5321 46.3919 39.7721 46.2986 39.9521 46.1119C40.1321 45.9253 40.2221 45.6419 40.2221 45.2619V41.2419H37.9421V40.3019H41.3521ZM45.7246 47.4019C45.1379 47.4019 44.6379 47.2953 44.2246 47.0819C43.8179 46.8686 43.4679 46.5819 43.1746 46.2219L43.9546 45.4919C44.2013 45.7919 44.4713 46.0186 44.7646 46.1719C45.0646 46.3253 45.4046 46.4019 45.7846 46.4019C46.2313 46.4019 46.5679 46.3019 46.7946 46.1019C47.0213 45.9019 47.1346 45.6319 47.1346 45.2919C47.1346 45.0186 47.0546 44.8019 46.8946 44.6419C46.7346 44.4819 46.4513 44.3619 46.0446 44.2819L45.4246 44.1719C44.7446 44.0453 44.2346 43.8219 43.8946 43.5019C43.5546 43.1819 43.3846 42.7419 43.3846 42.1819C43.3846 41.8753 43.4413 41.5986 43.5546 41.3519C43.6746 41.0986 43.8379 40.8886 44.0446 40.7219C44.2579 40.5486 44.5146 40.4153 44.8146 40.3219C45.1146 40.2286 45.4513 40.1819 45.8246 40.1819C46.3513 40.1819 46.8079 40.2753 47.1946 40.4619C47.5813 40.6419 47.9113 40.9053 48.1846 41.2519L47.3946 41.9519C47.2146 41.7186 46.9946 41.5319 46.7346 41.3919C46.4746 41.2519 46.1513 41.1819 45.7646 41.1819C45.3646 41.1819 45.0546 41.2619 44.8346 41.4219C44.6146 41.5819 44.5046 41.8153 44.5046 42.1219C44.5046 42.4153 44.5946 42.6353 44.7746 42.7819C44.9546 42.9219 45.2346 43.0286 45.6146 43.1019L46.2346 43.2319C46.9346 43.3653 47.4446 43.5919 47.7646 43.9119C48.0913 44.2319 48.2546 44.6719 48.2546 45.2319C48.2546 45.5586 48.1979 45.8553 48.0846 46.1219C47.9713 46.3886 47.8046 46.6186 47.5846 46.8119C47.3713 46.9986 47.1079 47.1453 46.7946 47.2519C46.4813 47.3519 46.1246 47.4019 45.7246 47.4019Z" fill="white"/>
<path d="M66.9686 3V65.2464L56.25 71.8842" stroke="white" stroke-width="0.267965"/>
<defs>
<clipPath id="clip0_23_309">
<rect width="49.25" height="10" fill="white" transform="translate(3 19.6023)"/>
</clipPath>
</defs>
</svg>
