<svg width="56" height="77" viewBox="0 0 56 77" fill="none" xmlns="http://www.w3.org/2000/svg">
<g clip-path="url(#clip0_23_306)">
<path d="M14.5736 11.7173H17.517C19.3283 11.7173 19.3283 13.5286 17.517 13.5286H14.5736V11.7173ZM7.55469 20.0946H16.6113V17.604H14.5736V15.7927H16.8377C19.3283 15.7927 17.9698 20.0946 20.0075 20.0946H25.6679V15.7927H24.3094V16.2456C24.3094 18.0569 22.2717 17.8305 22.0453 16.6984C21.8188 15.5663 20.9132 14.6606 20.6868 14.6606C24.083 12.8493 22.0453 9.22668 19.3283 9.22668H8.68676V11.7173H10.9509V17.604H7.55469V20.0946Z" fill="#999999" stroke="#999999" stroke-width="0.139039" stroke-linejoin="round"/>
<path d="M16.4858 24.7361C21.8628 24.7361 26.2217 20.3772 26.2217 15.0003C26.2217 9.62329 21.8628 5.2644 16.4858 5.2644C11.1089 5.2644 6.75 9.62329 6.75 15.0003C6.75 20.3772 11.1089 24.7361 16.4858 24.7361Z" stroke="#999999" stroke-width="1.25135"/>
<path d="M26.8906 15.6794L28.0227 15.0002L26.8906 14.3209V15.6794Z" fill="#999999" stroke="#999999" stroke-width="0.417116" stroke-linejoin="round"/>
<path d="M26.5553 17.698L27.7981 17.2527L26.8203 16.3656L26.5553 17.698Z" fill="#999999" stroke="#999999" stroke-width="0.417116" stroke-linejoin="round"/>
<path d="M25.8551 19.6131L27.161 19.4188L26.375 18.358L25.8551 19.6131Z" fill="#999999" stroke="#999999" stroke-width="0.417116" stroke-linejoin="round"/>
<path d="M24.7609 21.3507L26.0795 21.4149L25.5156 20.2212L24.7609 21.3507Z" fill="#999999" stroke="#999999" stroke-width="0.417116" stroke-linejoin="round"/>
<path d="M23.3753 22.845L24.6561 23.1652L24.3359 21.8844L23.3753 22.845Z" fill="#999999" stroke="#999999" stroke-width="0.417116" stroke-linejoin="round"/>
<path d="M21.7142 24.037L22.9079 24.6009L22.8438 23.2822L21.7142 24.037Z" fill="#999999" stroke="#999999" stroke-width="0.417116" stroke-linejoin="round"/>
<path d="M19.8465 24.8822L20.9072 25.6681L21.1016 24.3623L19.8465 24.8822Z" fill="#999999" stroke="#999999" stroke-width="0.417116" stroke-linejoin="round"/>
<path d="M17.8629 25.3473L18.75 26.3251L19.1953 25.0823L17.8629 25.3473Z" fill="#999999" stroke="#999999" stroke-width="0.417116" stroke-linejoin="round"/>
<path d="M15.8134 25.4148L16.4926 26.5469L17.1719 25.4148H15.8134Z" fill="#999999" stroke="#999999" stroke-width="0.417116" stroke-linejoin="round"/>
<path d="M13.777 25.0824L14.2223 26.3252L15.1094 25.3474L13.777 25.0824Z" fill="#999999" stroke="#999999" stroke-width="0.417116" stroke-linejoin="round"/>
<path d="M11.8621 24.3625L12.0564 25.6683L13.1172 24.8823L11.8621 24.3625Z" fill="#999999" stroke="#999999" stroke-width="0.417116" stroke-linejoin="round"/>
<path d="M10.1283 23.2825L10.0641 24.6011L11.2578 24.0372L10.1283 23.2825Z" fill="#999999" stroke="#999999" stroke-width="0.417116" stroke-linejoin="round"/>
<path d="M8.64096 21.8844L8.32077 23.1652L9.60156 22.845L8.64096 21.8844Z" fill="#999999" stroke="#999999" stroke-width="0.417116" stroke-linejoin="round"/>
<path d="M7.44839 20.2215L6.88447 21.4152L8.20312 21.3511L7.44839 20.2215Z" fill="#999999" stroke="#999999" stroke-width="0.417116" stroke-linejoin="round"/>
<path d="M6.5895 18.3582L5.80354 19.419L7.10938 19.6133L6.5895 18.3582Z" fill="#999999" stroke="#999999" stroke-width="0.417116" stroke-linejoin="round"/>
<path d="M6.13341 16.3652L5.1556 17.2523L6.39844 17.6976L6.13341 16.3652Z" fill="#999999" stroke="#999999" stroke-width="0.417116" stroke-linejoin="round"/>
<path d="M6.05469 14.3207L4.92261 15L6.05469 15.6792V14.3207Z" fill="#999999" stroke="#999999" stroke-width="0.417116" stroke-linejoin="round"/>
<path d="M6.39784 12.3018L5.155 12.7471L6.13281 13.6342L6.39784 12.3018Z" fill="#999999" stroke="#999999" stroke-width="0.417116" stroke-linejoin="round"/>
<path d="M7.12143 10.3866L5.8156 10.581L6.60156 11.6417L7.12143 10.3866Z" fill="#999999" stroke="#999999" stroke-width="0.417116" stroke-linejoin="round"/>
<path d="M8.20786 8.64878L6.88921 8.5846L7.45312 9.77832L8.20786 8.64878Z" fill="#999999" stroke="#999999" stroke-width="0.417116" stroke-linejoin="round"/>
<path d="M9.60904 7.15488L8.32824 6.83468L8.64844 8.11548L9.60904 7.15488Z" fill="#999999" stroke="#999999" stroke-width="0.417116" stroke-linejoin="round"/>
<path d="M11.2702 5.96267L10.0764 5.39875L10.1406 6.71741L11.2702 5.96267Z" fill="#999999" stroke="#999999" stroke-width="0.417116" stroke-linejoin="round"/>
<path d="M13.1379 5.11758L12.0771 4.33161L11.8828 5.63745L13.1379 5.11758Z" fill="#999999" stroke="#999999" stroke-width="0.417116" stroke-linejoin="round"/>
<path d="M15.1058 4.65209L14.2188 3.67428L13.7734 4.91711L15.1058 4.65209Z" fill="#999999" stroke="#999999" stroke-width="0.417116" stroke-linejoin="round"/>
<path d="M17.1554 4.58472L16.4761 3.45264L15.7969 4.58472H17.1554Z" fill="#999999" stroke="#999999" stroke-width="0.417116" stroke-linejoin="round"/>
<path d="M19.1761 4.91737L18.7308 3.67453L17.8438 4.65234L19.1761 4.91737Z" fill="#999999" stroke="#999999" stroke-width="0.417116" stroke-linejoin="round"/>
<path d="M21.091 5.63755L20.8967 4.33171L19.8359 5.11768L21.091 5.63755Z" fill="#999999" stroke="#999999" stroke-width="0.417116" stroke-linejoin="round"/>
<path d="M22.8327 6.71763L22.8968 5.39897L21.7031 5.96289L22.8327 6.71763Z" fill="#999999" stroke="#999999" stroke-width="0.417116" stroke-linejoin="round"/>
<path d="M24.3278 8.11599L24.648 6.8352L23.3672 7.1554L24.3278 8.11599Z" fill="#999999" stroke="#999999" stroke-width="0.417116" stroke-linejoin="round"/>
<path d="M25.5204 9.77859L26.0843 8.58487L24.7656 8.64905L25.5204 9.77859Z" fill="#999999" stroke="#999999" stroke-width="0.417116" stroke-linejoin="round"/>
<path d="M26.3714 11.6419L27.1574 10.5812L25.8516 10.3868L26.3714 11.6419Z" fill="#999999" stroke="#999999" stroke-width="0.417116" stroke-linejoin="round"/>
<path d="M26.8275 13.6343L27.8053 12.7472L26.5625 12.3019L26.8275 13.6343Z" fill="#999999" stroke="#999999" stroke-width="0.417116" stroke-linejoin="round"/>
<path d="M14.9219 5.4906L16.5068 7.07551L18.0917 5.4906H14.9219Z" fill="#999999" stroke="#999999" stroke-width="0.834232" stroke-linejoin="round"/>
<path d="M25.0391 10.5542L24.0215 12.5513L26.0186 13.5689L25.0391 10.5542Z" fill="#999999" stroke="#999999" stroke-width="0.834232" stroke-linejoin="round"/>
<path d="M23.3594 21.7618L21.1456 21.4112L20.7949 23.625L23.3594 21.7618Z" fill="#999999" stroke="#999999" stroke-width="0.834232" stroke-linejoin="round"/>
<path d="M12.1797 23.6252L11.8291 21.4114L9.61526 21.7621L12.1797 23.6252Z" fill="#999999" stroke="#999999" stroke-width="0.834232" stroke-linejoin="round"/>
<path d="M6.96094 13.5687L8.95804 12.5512L7.94046 10.5541L6.96094 13.5687Z" fill="#999999" stroke="#999999" stroke-width="0.834232" stroke-linejoin="round"/>
</g>
<path d="M5.15836 44.6796H4.02836V37.6996H7.03836C7.66503 37.6996 8.15836 37.8896 8.51836 38.2696C8.87836 38.643 9.05836 39.153 9.05836 39.7996C9.05836 40.2996 8.94169 40.7163 8.70836 41.0496C8.48169 41.3763 8.14503 41.6063 7.69836 41.7396L9.20836 44.6796H7.94836L6.54836 41.8596H5.15836V44.6796ZM6.95836 40.9096C7.24503 40.9096 7.46836 40.8363 7.62836 40.6896C7.78836 40.5363 7.86836 40.3196 7.86836 40.0396V39.5596C7.86836 39.2796 7.78836 39.0663 7.62836 38.9196C7.46836 38.7663 7.24503 38.6896 6.95836 38.6896H5.15836V40.9096H6.95836ZM12.1241 37.6996V41.9996C12.1241 42.593 12.2375 43.0396 12.4641 43.3396C12.6908 43.6396 13.0775 43.7896 13.6241 43.7896C14.1708 43.7896 14.5575 43.6396 14.7841 43.3396C15.0108 43.0396 15.1241 42.593 15.1241 41.9996V37.6996H16.2341V41.8196C16.2341 42.333 16.1875 42.7763 16.0941 43.1496C16.0008 43.523 15.8508 43.833 15.6441 44.0796C15.4375 44.3196 15.1675 44.4996 14.8341 44.6196C14.5075 44.7396 14.1041 44.7996 13.6241 44.7996C13.1441 44.7996 12.7375 44.7396 12.4041 44.6196C12.0775 44.4996 11.8108 44.3196 11.6041 44.0796C11.3975 43.833 11.2475 43.523 11.1541 43.1496C11.0608 42.7763 11.0141 42.333 11.0141 41.8196V37.6996H12.1241ZM20.5996 44.7996C20.0129 44.7996 19.5129 44.693 19.0996 44.4796C18.6929 44.2663 18.3429 43.9796 18.0496 43.6196L18.8296 42.8896C19.0763 43.1896 19.3463 43.4163 19.6396 43.5696C19.9396 43.723 20.2796 43.7996 20.6596 43.7996C21.1063 43.7996 21.4429 43.6996 21.6696 43.4996C21.8963 43.2996 22.0096 43.0296 22.0096 42.6896C22.0096 42.4163 21.9296 42.1996 21.7696 42.0396C21.6096 41.8796 21.3263 41.7596 20.9196 41.6796L20.2996 41.5696C19.6196 41.443 19.1096 41.2196 18.7696 40.8996C18.4296 40.5796 18.2596 40.1396 18.2596 39.5796C18.2596 39.273 18.3163 38.9963 18.4296 38.7496C18.5496 38.4963 18.7129 38.2863 18.9196 38.1196C19.1329 37.9463 19.3896 37.813 19.6896 37.7196C19.9896 37.6263 20.3263 37.5796 20.6996 37.5796C21.2263 37.5796 21.6829 37.673 22.0696 37.8596C22.4563 38.0396 22.7863 38.303 23.0596 38.6496L22.2696 39.3496C22.0896 39.1163 21.8696 38.9296 21.6096 38.7896C21.3496 38.6496 21.0263 38.5796 20.6396 38.5796C20.2396 38.5796 19.9296 38.6596 19.7096 38.8196C19.4896 38.9796 19.3796 39.213 19.3796 39.5196C19.3796 39.813 19.4696 40.033 19.6496 40.1796C19.8296 40.3196 20.1096 40.4263 20.4896 40.4996L21.1096 40.6296C21.8096 40.763 22.3196 40.9896 22.6396 41.3096C22.9663 41.6296 23.1296 42.0696 23.1296 42.6296C23.1296 42.9563 23.0729 43.253 22.9596 43.5196C22.8463 43.7863 22.6796 44.0163 22.4596 44.2096C22.2463 44.3963 21.9829 44.543 21.6696 44.6496C21.3563 44.7496 20.9996 44.7996 20.5996 44.7996ZM27.5102 38.6996V44.6796H26.3802V38.6996H24.3002V37.6996H29.5902V38.6996H27.5102Z" fill="white"/>
<path d="M3 73.073H42.5249L54.9183 60.6796" stroke="white" stroke-width="0.267965"/>
<defs>
<clipPath id="clip0_23_306">
<rect width="24" height="24" fill="white" transform="translate(4.5 3)"/>
</clipPath>
</defs>
</svg>
