<svg width="16" height="17" viewBox="0 0 16 17" fill="none" xmlns="http://www.w3.org/2000/svg">
<path d="M13.5447 3.13619C12.5249 2.66827 11.4313 2.32352 10.2879 2.12607C10.2671 2.12226 10.2463 2.13178 10.2356 2.15083C10.0949 2.40097 9.93915 2.72731 9.83006 2.9838C8.60027 2.79969 7.37679 2.79969 6.17221 2.9838C6.0631 2.72161 5.90166 2.40097 5.76038 2.15083C5.74966 2.13242 5.72886 2.1229 5.70803 2.12607C4.56527 2.32289 3.47171 2.66763 2.45129 3.13619C2.44246 3.13999 2.43488 3.14635 2.42986 3.1546C0.355594 6.2535 -0.212633 9.27624 0.0661201 12.2615C0.0673814 12.2761 0.0755799 12.2901 0.086932 12.299C1.45547 13.304 2.78114 13.9141 4.08219 14.3185C4.10301 14.3249 4.12507 14.3173 4.13832 14.3001C4.44608 13.8798 4.72043 13.4367 4.95565 12.9707C4.96953 12.9434 4.95628 12.911 4.92791 12.9002C4.49275 12.7351 4.0784 12.5339 3.67982 12.3053C3.64829 12.2869 3.64577 12.2418 3.67477 12.2202C3.75865 12.1574 3.84255 12.092 3.92264 12.0259C3.93713 12.0139 3.95732 12.0113 3.97435 12.019C6.59286 13.2145 9.4277 13.2145 12.0153 12.019C12.0323 12.0107 12.0525 12.0133 12.0677 12.0253C12.1478 12.0913 12.2316 12.1574 12.3161 12.2202C12.3451 12.2418 12.3433 12.2869 12.3117 12.3053C11.9131 12.5383 11.4988 12.7351 11.063 12.8996C11.0346 12.9104 11.022 12.9434 11.0359 12.9707C11.2762 13.436 11.5505 13.8792 11.8526 14.2995C11.8652 14.3173 11.8879 14.3249 11.9087 14.3185C13.2161 13.9141 14.5417 13.304 15.9103 12.299C15.9223 12.2901 15.9298 12.2767 15.9311 12.2621C16.2647 8.81085 15.3723 5.8129 13.5655 3.15523C13.5611 3.14635 13.5535 3.13999 13.5447 3.13619ZM5.34668 10.4438C4.55833 10.4438 3.90876 9.72003 3.90876 8.83117C3.90876 7.94232 4.54574 7.21855 5.34668 7.21855C6.15392 7.21855 6.79721 7.94867 6.78459 8.83117C6.78459 9.72003 6.14761 10.4438 5.34668 10.4438ZM10.6632 10.4438C9.87484 10.4438 9.22526 9.72003 9.22526 8.83117C9.22526 7.94232 9.86222 7.21855 10.6632 7.21855C11.4704 7.21855 12.1137 7.94867 12.1011 8.83117C12.1011 9.72003 11.4704 10.4438 10.6632 10.4438Z" fill="white"/>
</svg>
