<svg width="16" height="16" viewBox="0 0 16 16" fill="none" xmlns="http://www.w3.org/2000/svg">
  <rect x="1.33334" y="5.66675" width="3.33333" height="9.33333" rx="0.5" fill="white" />
  <ellipse cx="2.98668" cy="2.66667" rx="1.65333" ry="1.66667" fill="white" />
  <path
    d="M12.3333 15.0001H14.3333C14.5174 15.0001 14.6667 14.8508 14.6667 14.6668V9.06675C14.6667 6.55342 13.2467 5.33342 11.26 5.33342C10.4676 5.30444 9.69988 5.612 9.14667 6.18009C9.07183 6.26655 8.95109 6.29728 8.84402 6.25713C8.73696 6.21698 8.6662 6.11443 8.66667 6.00009C8.66667 5.81599 8.51743 5.66675 8.33333 5.66675H6.33333C6.14924 5.66675 6 5.81599 6 6.00009V14.6668C6 14.8508 6.14924 15.0001 6.33333 15.0001H8.33333C8.51743 15.0001 8.66667 14.8508 8.66667 14.6668V9.66675C8.66667 8.74628 9.41286 8.00009 10.3333 8.00009C11.2538 8.00009 12 8.74628 12 9.66675V14.6668C12 14.8508 12.1492 15.0001 12.3333 15.0001Z"
    fill="white" />
</svg>
  