<svg width="142" height="20" viewBox="0 0 142 20" fill="none" xmlns="http://www.w3.org/2000/svg">
<path d="M10.4939 0L12.9565 4.26539L10.4939 2.84359L8.03125 4.26539L10.4939 0Z" fill="white"/>
<path d="M10.4939 20L12.9565 15.7346L10.4939 17.1564L8.03125 15.7346L10.4939 20Z" fill="white"/>
<path d="M19.161 4.99988L16.6984 9.26527L16.6984 6.42167L14.2357 4.99988L19.161 4.99988Z" fill="white"/>
<path d="M1.83288 14.9999L6.75816 14.9999L4.29552 13.5781L4.29552 10.7345L1.83288 14.9999Z" fill="white"/>
<path d="M19.1515 14.9999L14.2262 14.9999L16.6889 13.5781L16.6889 10.7345L19.1515 14.9999Z" fill="white"/>
<path d="M1.84681 4.99988L4.30944 9.26527L4.30945 6.42167L6.77208 4.99988L1.84681 4.99988Z" fill="white"/>
<path d="M10.495 5.33057L14.6229 7.71377V12.4802L10.495 14.8634L6.36719 12.4802V7.71377L10.495 5.33057Z" fill="white"/>
<path d="M31.5312 16.192C30.5712 16.192 29.7552 16.0213 29.0832 15.68C28.4219 15.3387 27.8512 14.8907 27.3712 14.336L28.7952 12.96C29.1792 13.408 29.6059 13.7493 30.0752 13.984C30.5552 14.2187 31.0832 14.336 31.6592 14.336C32.3099 14.336 32.8005 14.1973 33.1312 13.92C33.4619 13.632 33.6272 13.248 33.6272 12.768C33.6272 12.3947 33.5205 12.0907 33.3072 11.856C33.0939 11.6213 32.6939 11.4507 32.1072 11.344L31.0512 11.184C28.8219 10.832 27.7072 9.74933 27.7072 7.936C27.7072 7.43467 27.7979 6.98133 27.9792 6.576C28.1712 6.17067 28.4432 5.824 28.7952 5.536C29.1472 5.248 29.5685 5.02933 30.0592 4.88C30.5605 4.72 31.1259 4.64 31.7552 4.64C32.5979 4.64 33.3339 4.77867 33.9632 5.056C34.5925 5.33333 35.1312 5.744 35.5792 6.288L34.1392 7.648C33.8619 7.30667 33.5259 7.02933 33.1312 6.816C32.7365 6.60267 32.2405 6.496 31.6432 6.496C31.0352 6.496 30.5765 6.61333 30.2672 6.848C29.9685 7.072 29.8192 7.392 29.8192 7.808C29.8192 8.23467 29.9419 8.54933 30.1872 8.752C30.4325 8.95467 30.8272 9.104 31.3712 9.2L32.4112 9.392C33.5419 9.59467 34.3739 9.95733 34.9072 10.48C35.4512 10.992 35.7232 11.712 35.7232 12.64C35.7232 13.1733 35.6272 13.6587 35.4352 14.096C35.2539 14.5227 34.9819 14.896 34.6192 15.216C34.2672 15.5253 33.8299 15.7653 33.3072 15.936C32.7952 16.1067 32.2032 16.192 31.5312 16.192ZM41.7444 16.192C41.0084 16.192 40.3418 16.0693 39.7444 15.824C39.1471 15.5787 38.6351 15.2107 38.2084 14.72C37.7924 14.2293 37.4671 13.6267 37.2324 12.912C36.9978 12.1973 36.8804 11.3653 36.8804 10.416C36.8804 9.47733 36.9978 8.65067 37.2324 7.936C37.4671 7.21067 37.7924 6.60267 38.2084 6.112C38.6351 5.62133 39.1471 5.25333 39.7444 5.008C40.3418 4.76267 41.0084 4.64 41.7444 4.64C42.4804 4.64 43.1471 4.76267 43.7444 5.008C44.3418 5.25333 44.8538 5.62133 45.2804 6.112C45.7071 6.60267 46.0324 7.21067 46.2564 7.936C46.4911 8.65067 46.6084 9.47733 46.6084 10.416C46.6084 11.3653 46.4911 12.1973 46.2564 12.912C46.0324 13.6267 45.7071 14.2293 45.2804 14.72C44.8538 15.2107 44.3418 15.5787 43.7444 15.824C43.1471 16.0693 42.4804 16.192 41.7444 16.192ZM41.7444 14.32C42.5444 14.32 43.1791 14.0533 43.6484 13.52C44.1284 12.9867 44.3684 12.24 44.3684 11.28V9.552C44.3684 8.592 44.1284 7.84533 43.6484 7.312C43.1791 6.77867 42.5444 6.512 41.7444 6.512C40.9444 6.512 40.3044 6.77867 39.8244 7.312C39.3551 7.84533 39.1204 8.592 39.1204 9.552V11.28C39.1204 12.24 39.3551 12.9867 39.8244 13.52C40.3044 14.0533 40.9444 14.32 41.7444 14.32ZM48.2711 16V4.832H50.3831V14.128H54.7831V16H48.2711ZM56.1348 4.832H61.3028C61.7615 4.832 62.1721 4.90133 62.5348 5.04C62.9081 5.17867 63.2228 5.37067 63.4788 5.616C63.7348 5.86133 63.9268 6.16533 64.0548 6.528C64.1935 6.88 64.2628 7.26933 64.2628 7.696C64.2628 8.12267 64.2041 8.48533 64.0868 8.784C63.9801 9.072 63.8308 9.312 63.6388 9.504C63.4575 9.696 63.2441 9.84 62.9988 9.936C62.7641 10.032 62.5188 10.0853 62.2628 10.096V10.192C62.5081 10.192 62.7695 10.24 63.0468 10.336C63.3348 10.432 63.5961 10.5867 63.8308 10.8C64.0761 11.0027 64.2788 11.2693 64.4388 11.6C64.5988 11.92 64.6788 12.32 64.6788 12.8C64.6788 13.248 64.6041 13.6693 64.4548 14.064C64.3161 14.448 64.1188 14.784 63.8628 15.072C63.6068 15.36 63.3028 15.5893 62.9508 15.76C62.5988 15.92 62.2148 16 61.7988 16H56.1348V4.832ZM58.2468 14.208H61.1908C61.5961 14.208 61.9108 14.1067 62.1348 13.904C62.3588 13.6907 62.4708 13.3867 62.4708 12.992V12.448C62.4708 12.0533 62.3588 11.7493 62.1348 11.536C61.9108 11.3227 61.5961 11.216 61.1908 11.216H58.2468V14.208ZM58.2468 9.488H60.8548C61.2388 9.488 61.5375 9.38667 61.7508 9.184C61.9641 8.97067 62.0708 8.67733 62.0708 8.304V7.808C62.0708 7.43467 61.9641 7.14667 61.7508 6.944C61.5375 6.73067 61.2388 6.624 60.8548 6.624H58.2468V9.488ZM70.6482 16.192C69.9122 16.192 69.2455 16.0693 68.6482 15.824C68.0509 15.5787 67.5389 15.2107 67.1122 14.72C66.6962 14.2293 66.3709 13.6267 66.1362 12.912C65.9015 12.1973 65.7842 11.3653 65.7842 10.416C65.7842 9.47733 65.9015 8.65067 66.1362 7.936C66.3709 7.21067 66.6962 6.60267 67.1122 6.112C67.5389 5.62133 68.0509 5.25333 68.6482 5.008C69.2455 4.76267 69.9122 4.64 70.6482 4.64C71.3842 4.64 72.0509 4.76267 72.6482 5.008C73.2455 5.25333 73.7575 5.62133 74.1842 6.112C74.6109 6.60267 74.9362 7.21067 75.1602 7.936C75.3949 8.65067 75.5122 9.47733 75.5122 10.416C75.5122 11.3653 75.3949 12.1973 75.1602 12.912C74.9362 13.6267 74.6109 14.2293 74.1842 14.72C73.7575 15.2107 73.2455 15.5787 72.6482 15.824C72.0509 16.0693 71.3842 16.192 70.6482 16.192ZM70.6482 14.32C71.4482 14.32 72.0829 14.0533 72.5522 13.52C73.0322 12.9867 73.2722 12.24 73.2722 11.28V9.552C73.2722 8.592 73.0322 7.84533 72.5522 7.312C72.0829 6.77867 71.4482 6.512 70.6482 6.512C69.8482 6.512 69.2082 6.77867 68.7282 7.312C68.2589 7.84533 68.0242 8.592 68.0242 9.552V11.28C68.0242 12.24 68.2589 12.9867 68.7282 13.52C69.2082 14.0533 69.8482 14.32 70.6482 14.32ZM79.1748 4.832V11.696C79.1748 12.5707 79.3401 13.2267 79.6708 13.664C80.0121 14.1013 80.5828 14.32 81.3828 14.32C82.1828 14.32 82.7481 14.1013 83.0788 13.664C83.4201 13.2267 83.5908 12.5707 83.5908 11.696V4.832H85.6708V11.424C85.6708 12.2453 85.5908 12.9547 85.4308 13.552C85.2815 14.1493 85.0361 14.6453 84.6948 15.04C84.3535 15.4347 83.9055 15.728 83.3508 15.92C82.8068 16.1013 82.1455 16.192 81.3668 16.192C80.5775 16.192 79.9108 16.1013 79.3668 15.92C78.8335 15.728 78.3961 15.4347 78.0548 15.04C77.7135 14.6453 77.4681 14.1493 77.3188 13.552C77.1695 12.9547 77.0948 12.2453 77.0948 11.424V4.832H79.1748ZM90.9417 10.272L89.7897 7.952H89.7417V16H87.7417V4.832H90.0617L93.4217 10.56L94.5737 12.88H94.6217V4.832H96.6217V16H94.3017L90.9417 10.272ZM98.7617 4.832H102.826C103.551 4.832 104.207 4.94933 104.794 5.184C105.391 5.41867 105.898 5.77067 106.314 6.24C106.74 6.69867 107.066 7.28 107.29 7.984C107.524 8.67733 107.642 9.488 107.642 10.416C107.642 11.344 107.524 12.16 107.29 12.864C107.066 13.5573 106.74 14.1387 106.314 14.608C105.898 15.0667 105.391 15.4133 104.794 15.648C104.207 15.8827 103.551 16 102.826 16H98.7617V4.832ZM102.826 14.128C103.615 14.128 104.239 13.8987 104.698 13.44C105.167 12.9707 105.402 12.256 105.402 11.296V9.536C105.402 8.576 105.167 7.86667 104.698 7.408C104.239 6.93867 103.615 6.704 102.826 6.704H100.874V14.128H102.826ZM109.791 16.176C109.354 16.176 109.029 16.0693 108.815 15.856C108.613 15.632 108.511 15.3493 108.511 15.008V14.72C108.511 14.3787 108.613 14.096 108.815 13.872C109.029 13.648 109.354 13.536 109.791 13.536C110.239 13.536 110.565 13.648 110.767 13.872C110.97 14.096 111.071 14.3787 111.071 14.72V15.008C111.071 15.3493 110.97 15.632 110.767 15.856C110.565 16.0693 110.239 16.176 109.791 16.176ZM113.005 4.832H117.069C117.794 4.832 118.45 4.94933 119.037 5.184C119.634 5.41867 120.141 5.77067 120.557 6.24C120.983 6.69867 121.309 7.28 121.533 7.984C121.767 8.67733 121.885 9.488 121.885 10.416C121.885 11.344 121.767 12.16 121.533 12.864C121.309 13.5573 120.983 14.1387 120.557 14.608C120.141 15.0667 119.634 15.4133 119.037 15.648C118.45 15.8827 117.794 16 117.069 16H113.005V4.832ZM117.069 14.128C117.858 14.128 118.482 13.8987 118.941 13.44C119.41 12.9707 119.645 12.256 119.645 11.296V9.536C119.645 8.576 119.41 7.86667 118.941 7.408C118.482 6.93867 117.858 6.704 117.069 6.704H115.117V14.128H117.069ZM123.556 16V4.832H130.916V6.704H125.668V9.408H130.308V11.28H125.668V14.128H130.916V16H123.556ZM135.215 16L131.567 4.832H133.727L135.439 10.272L136.431 13.984H136.479L137.455 10.272L139.167 4.832H141.263L137.615 16H135.215Z" fill="#F8F8F8"/>
</svg>
