<svg width="136" height="24" viewBox="0 0 136 24" fill="none" xmlns="http://www.w3.org/2000/svg">
  <path
    d="M5.37853 6.21469C3.46516 6.21469 2.50847 6.88512 2.50847 8.22599C2.50847 8.91902 2.73446 9.4162 3.18644 9.71751C3.63842 10.0038 4.63277 10.3653 6.16949 10.8023C7.72128 11.2241 8.81356 11.7363 9.44633 12.339C10.0791 12.9266 10.3955 13.8606 10.3955 15.1412C10.3955 16.7684 9.92844 17.9887 8.99435 18.8023C8.07533 19.6008 6.81733 20 5.22034 20C3.93974 20 2.52354 19.8493 0.971751 19.548L0.158192 19.3898L0.40678 17.3785C2.44068 17.6497 3.99247 17.7853 5.06215 17.7853C6.93032 17.7853 7.86441 16.9567 7.86441 15.2994C7.86441 14.6516 7.65348 14.177 7.23164 13.8757C6.80979 13.5593 5.86064 13.2203 4.38418 12.8588C2.90772 12.4821 1.80791 11.9699 1.08475 11.322C0.361582 10.6742 0 9.64972 0 8.24859C0 6.84746 0.451977 5.79284 1.35593 5.08475C2.27495 4.36158 3.54049 4 5.15254 4C6.31262 4 7.68362 4.13559 9.26554 4.40678L10.0565 4.54237L9.85311 6.57627C7.74388 6.33522 6.25236 6.21469 5.37853 6.21469Z"
    fill="#F8F8F8" />
  <path
    d="M15.3439 16.4746C15.8562 17.3635 16.8355 17.8079 18.2818 17.8079C19.7281 17.8079 20.6999 17.371 21.197 16.4972C21.7093 15.6234 21.9654 14.162 21.9654 12.113C21.9654 10.049 21.7017 8.54991 21.1744 7.61582C20.6622 6.68173 19.698 6.21469 18.2818 6.21469C16.8656 6.21469 15.8938 6.68173 15.3665 7.61582C14.8392 8.54991 14.5756 10.0414 14.5756 12.0904C14.5756 14.1243 14.8317 15.5857 15.3439 16.4746ZM23.1631 18.1017C22.2441 19.3672 20.617 20 18.2818 20C15.9466 20 14.3119 19.3672 13.3778 18.1017C12.4437 16.8211 11.9767 14.8173 11.9767 12.0904C11.9767 9.36347 12.4437 7.3371 13.3778 6.0113C14.327 4.6855 15.9616 4.0226 18.2818 4.0226C20.6019 4.0226 22.229 4.6855 23.1631 6.0113C24.0972 7.32203 24.5643 9.3484 24.5643 12.0904C24.5643 14.8324 24.0972 16.8362 23.1631 18.1017Z"
    fill="#F8F8F8" />
  <path d="M35.7112 19.7514H27.0332V4.27119H29.5417V17.5141H35.7112V19.7514Z" fill="#F8F8F8" />
  <path
    d="M37.3069 4.27119H43.1826C44.7645 4.27119 45.9472 4.5951 46.7306 5.24294C47.514 5.87571 47.9057 6.89266 47.9057 8.29378C47.9057 9.21281 47.7551 9.93597 47.4537 10.4633C47.1675 10.9906 46.708 11.4275 46.0752 11.774C47.5517 12.3465 48.2899 13.5443 48.2899 15.3672C48.2899 18.29 46.6477 19.7514 43.3633 19.7514H37.3069V4.27119ZM43.1826 12.9943H39.8153V17.5819H43.2278C44.0564 17.5819 44.6741 17.4087 45.0809 17.0621C45.5027 16.7156 45.7136 16.1205 45.7136 15.2768C45.7136 14.4331 45.4726 13.8456 44.9905 13.5141C44.5084 13.1676 43.9057 12.9943 43.1826 12.9943ZM43.047 6.44068H39.8153V10.8701H43.1374C44.6138 10.8701 45.3521 10.1092 45.3521 8.58757C45.3521 7.15631 44.5837 6.44068 43.047 6.44068Z"
    fill="#F8F8F8" />
  <path
    d="M53.3815 16.4746C53.8938 17.3635 54.8731 17.8079 56.3194 17.8079C57.7657 17.8079 58.7375 17.371 59.2346 16.4972C59.7469 15.6234 60.003 14.162 60.003 12.113C60.003 10.049 59.7394 8.54991 59.212 7.61582C58.6998 6.68173 57.7356 6.21469 56.3194 6.21469C54.9032 6.21469 53.9314 6.68173 53.4041 7.61582C52.8768 8.54991 52.6132 10.0414 52.6132 12.0904C52.6132 14.1243 52.8693 15.5857 53.3815 16.4746ZM61.2007 18.1017C60.2817 19.3672 58.6546 20 56.3194 20C53.9842 20 52.3495 19.3672 51.4154 18.1017C50.4813 16.8211 50.0143 14.8173 50.0143 12.0904C50.0143 9.36347 50.4813 7.3371 51.4154 6.0113C52.3646 4.6855 53.9992 4.0226 56.3194 4.0226C58.6395 4.0226 60.2667 4.6855 61.2007 6.0113C62.1348 7.32203 62.6019 9.3484 62.6019 12.0904C62.6019 14.8324 62.1348 16.8362 61.2007 18.1017Z"
    fill="#F8F8F8" />
  <path
    d="M67.4663 14.8023C67.4663 16.806 68.5209 17.8079 70.6301 17.8079C72.7394 17.8079 73.794 16.806 73.794 14.8023V4.27119H76.325V14.7571C76.325 16.58 75.8429 17.9134 74.8787 18.7571C73.9296 19.5857 72.5058 20 70.6075 20C68.7243 20 67.3081 19.5857 66.3589 18.7571C65.4098 17.9134 64.9352 16.58 64.9352 14.7571V4.27119H67.4663V14.8023Z"
    fill="#F8F8F8" />
  <path
    d="M79.3169 19.7514V4.27119H83.7011L88.4017 17.5367H88.7406V4.27119H91.2491V19.7514H86.9553L82.1418 6.46328H81.8254V19.7514H79.3169Z"
    fill="#F8F8F8" />
  <path
    d="M99.7135 19.7514H94.3575V4.27119H99.7135C102.094 4.27119 103.721 4.87382 104.595 6.0791C105.469 7.28437 105.906 9.17514 105.906 11.7514C105.906 13.0621 105.815 14.177 105.634 15.096C105.469 16 105.167 16.8211 104.73 17.5593C103.872 19.0207 102.199 19.7514 99.7135 19.7514ZM103.307 11.7514C103.307 9.88324 103.073 8.53484 102.606 7.70621C102.139 6.87759 101.175 6.46328 99.7135 6.46328H96.866V17.5367H99.7135C101.205 17.5367 102.199 16.9868 102.697 15.887C102.938 15.3296 103.096 14.7345 103.171 14.1017C103.261 13.4689 103.307 12.6855 103.307 11.7514Z"
    fill="#F8F8F8" />
  <path d="M123.578 0L126.533 5.11846L123.578 3.41231L120.623 5.11846L123.578 0Z" fill="#F8F8F8" />
  <path d="M123.578 24L126.533 18.8815L123.578 20.5877L120.623 18.8815L123.578 24Z" fill="#F8F8F8" />
  <path d="M133.972 6.00003L131.017 11.1185L131.017 7.70617L128.061 6.00003L133.972 6.00003Z"
    fill="#F8F8F8" />
  <path d="M113.187 18L119.097 18L116.142 16.2939L116.142 12.8816L113.187 18Z" fill="#F8F8F8" />
  <path d="M133.973 18L128.062 18L131.017 16.2939L131.017 12.8816L133.973 18Z" fill="#F8F8F8" />
  <path d="M113.186 6.00003L116.142 11.1185L116.142 7.70617L119.097 6.00003L113.186 6.00003Z"
    fill="#F8F8F8" />
  <path
    d="M123.579 6.39636L128.533 9.25621V14.9759L123.579 17.8357L118.626 14.9759V9.25621L123.579 6.39636Z"
    fill="#F8F8F8" />
</svg>