<svg width="64" height="64" viewBox="0 0 64 64" fill="none" xmlns="http://www.w3.org/2000/svg">
  <path d="M123.578 0L126.533 5.11846L123.578 3.41231L120.623 5.11846L123.578 0Z" fill="#F8F8F8" />
  <path d="M123.578 24L126.533 18.8815L123.578 20.5877L120.623 18.8815L123.578 24Z" fill="#F8F8F8" />
  <path d="M133.972 6.00003L131.017 11.1185L131.017 7.70617L128.061 6.00003L133.972 6.00003Z"
    fill="#F8F8F8" />
  <path d="M113.187 18L119.097 18L116.142 16.2939L116.142 12.8816L113.187 18Z" fill="#F8F8F8" />
  <path d="M133.973 18L128.062 18L131.017 16.2939L131.017 12.8816L133.973 18Z" fill="#F8F8F8" />
  <path d="M113.186 6.00003L116.142 11.1185L116.142 7.70617L119.097 6.00003L113.186 6.00003Z"
    fill="#F8F8F8" />
  <path
    d="M123.579 6.39636L128.533 9.25621V14.9759L123.579 17.8357L118.626 14.9759V9.25621L123.579 6.39636Z"
    fill="#F8F8F8" />
</svg>