<svg width="16" height="16" viewBox="0 0 16 16" fill="none" xmlns="http://www.w3.org/2000/svg">
  <path
    d="M15.5467 4.29345C15.6434 4.21305 15.6866 4.08503 15.6585 3.96243C15.6303 3.83983 15.5355 3.74354 15.4133 3.71345L14.8867 3.58012C14.7897 3.55584 14.7087 3.48933 14.6661 3.39891C14.6235 3.30849 14.6237 3.20371 14.6667 3.11345L14.96 2.52012C15.0166 2.40271 14.9996 2.26309 14.9164 2.16273C14.8332 2.06236 14.6992 2.01967 14.5733 2.05345L13.24 2.42679C13.1393 2.45616 13.0306 2.43641 12.9467 2.37345C12.3697 1.94071 11.6679 1.70679 10.9467 1.70679C9.10573 1.70679 7.61334 3.19917 7.61334 5.04012V5.28012C7.61396 5.36489 7.55084 5.43662 7.46668 5.44679C5.59334 5.66679 3.80001 4.71345 1.86668 2.48679C1.78105 2.39235 1.64979 2.35375 1.52668 2.38679C1.41586 2.43772 1.34171 2.54511 1.33334 2.66679C1.06631 3.76368 1.17428 4.9184 1.64001 5.94679C1.6681 6.00239 1.66284 6.06902 1.62636 6.11952C1.58989 6.17003 1.52829 6.19597 1.46668 6.18679L0.72001 6.04012C0.612388 6.02282 0.503104 6.05923 0.427367 6.13762C0.351629 6.21602 0.319007 6.32649 0.34001 6.43345C0.456603 7.46983 1.03794 8.39702 1.92001 8.95345C1.97751 8.9813 2.01403 9.03957 2.01403 9.10345C2.01403 9.16734 1.97751 9.22561 1.92001 9.25345L1.56668 9.39345C1.47992 9.42824 1.41175 9.49785 1.37879 9.58531C1.34583 9.67278 1.35111 9.77007 1.39334 9.85345C1.78997 10.7213 2.58729 11.3393 3.52668 11.5068C3.59259 11.5307 3.63648 11.5933 3.63648 11.6635C3.63648 11.7336 3.59259 11.7962 3.52668 11.8201C2.62025 12.195 1.64752 12.3832 0.666677 12.3735C0.482582 12.3366 0.303496 12.456 0.266677 12.6401C0.229858 12.8242 0.349248 13.0033 0.533343 13.0401C2.23171 13.8456 4.0808 14.284 5.96001 14.3268C7.61298 14.352 9.23653 13.8881 10.6267 12.9935C12.9492 11.4431 14.3408 8.83254 14.3333 6.04012V5.46012C14.3342 5.36214 14.3781 5.26949 14.4533 5.20679L15.5467 4.29345Z"
    fill="white" />
</svg>
  